# xmcd
#
# Track frame offsets: 
#        150
#        13165
#        28735
#        48645
#        73295
#        90330
#        106967
#        121240
#        137117
#        157750
#        184032
#        202795
#
# Disc length: 2836 seconds
#
# Revision: 15
# Processed by: cddbd v1.5.2PL0 Copyright (c) Steve Scherf et al.
# Submitted via: ExactAudioCopyFreeDBPlugin 1.0
#
DISCID=9b0b120c
DTITLE=Aimee Mann - Magnolia
DYEAR=1999
DGENRE=Soundtrack
TTITLE0=One
TTITLE1=Momentum
TTITLE2=Build That Wall
TTITLE3=Deathly
TTITLE4=Driving Sideways
TTITLE5=You Do
TTITLE6=Nothing Is Good Enough (Instrumental)
TTITLE7=Wise Up
TTITLE8=Save Me
TTITLE9=Goodbye Stranger (performed by Supertramp)
TTITLE10=Logical Song (performed by Supertramp)
TTITLE11=Magnolia (performed by Jon Brion)
EXTD=
EXTT0=
EXTT1=
EXTT2=
EXTT3=
EXTT4=
EXTT5=
EXTT6=
EXTT7=
EXTT8=
EXTT9=
EXTT10=
EXTT11=
PLAYORDER=
